<?xml version="1.0" encoding="utf-8"?>
<!-- Generator: Adobe Illustrator 21.1.0, SVG Export Plug-In . SVG Version: 6.00 Build 0)  -->
<svg version="1.1" id="svg2" xmlns:svg="http://www.w3.org/2000/svg"
	 xmlns="http://www.w3.org/2000/svg" xmlns:xlink="http://www.w3.org/1999/xlink" x="0px" y="0px" viewBox="0 0 300 100"
	 style="enable-background:new 0 0 300 100;" xml:space="preserve">
	<style type="text/css">
		.st0{fill:#E00023;}
	</style>
	<path fill="#000" id="path2835_2_" d="M57.2,8H68v48.8c0,8.6-0.8,15.1-2.6,20.2c-1.8,4.9-5.3,9-10.2,12.3C50.3,92.4,43.8,94,35.9,94c-7.7,0-14-1.4-19.1-4.1S8.3,83.2,6.2,78.1C4.2,73,3,65.8,3,56.8V8h11v48.6c0,7.4,0.6,12.7,2,16.1s3.7,6.1,6.9,8c3.2,1.8,7.3,2.9,12,2.9c8.1,0,13.8-1.8,17.3-5.5c3.5-3.7,5.1-10.8,5.1-21.4V8"/>
	<path fill="#000" id="path2837" d="M140.9,62.6l11.1,2.9c-2.3,9-6.6,15.9-12.5,20.6c-6.2,4.5-13.6,6.9-22.2,6.9c-9,0-16.4-1.8-22-5.5s-9.9-9-12.9-15.9C79.4,64.7,78,57.3,78,49.4c0-8.6,1.6-16.1,4.9-22.6c3.3-6.5,8-11.4,14.2-14.7c6.2-3.3,12.9-5.1,20.3-5.1c8.4,0,15.4,2,21.2,6.3c5.8,4.3,9.7,10.2,11.9,17.7l-10.9,2.4c-1.9-6.1-4.7-10.4-8.4-13.2c-3.7-2.6-8.4-4.1-14-4.1c-6.4,0-11.9,1.4-16.2,4.5c-4.3,3.1-7.4,7.1-9,12.2c-1.8,5.1-2.7,10.4-2.7,15.9c0,7.1,1,13.2,3.1,18.5c2.1,5.3,5.3,9.2,9.7,11.8s9,3.9,14.2,3.9c6.2,0,11.5-1.8,15.8-5.3C136.4,74.9,139.3,69.6,140.9,62.6"/>
	<path fill="#000" id="path2841" d="M230,65.5l10.5-0.8c0.4,4.1,1.6,7.5,3.5,10.2c1.9,2.6,4.7,4.7,8.5,6.5c3.9,1.6,8,2.4,13,2.4c4.3,0,8-0.6,11.3-1.8c3.3-1.2,5.6-2.9,7.2-5.1c1.6-2.2,2.5-4.5,2.5-7.1s-0.8-4.9-2.3-6.7c-1.4-2-4.1-3.7-7.6-4.9c-2.3-0.8-7.2-2.2-15-4.1c-7.6-1.8-13.2-3.7-16.3-5.1c-3.9-2-7-4.7-9.1-7.7c-1.9-3.1-2.9-6.5-2.9-10.4c0-4.3,1.2-8.2,3.7-11.6c2.5-3.7,6-6.3,10.5-8.4C252.1,9,257.2,8,263,8c6.2,0,11.8,1,16.5,3.1s8.5,4.9,10.9,8.8s3.9,8.2,4.1,13l-10.7,0.8c-0.6-5.3-2.5-9.2-5.8-11.8s-8.2-4.1-14.6-4.1c-6.8,0-11.5,1.2-14.8,3.7c-3.1,2.4-4.5,5.3-4.5,8.8c0,3.1,1,5.5,3.3,7.3c2.1,1.8,7.6,3.9,16.7,5.9c9.1,2,15.3,3.7,18.6,5.3c4.9,2.2,8.5,5.1,10.9,8.6c2.3,3.5,3.5,7.3,3.5,11.8c0,4.5-1.2,8.6-3.9,12.4c-2.5,3.9-6.2,6.9-11.1,9.2c-4.7,2.2-10.1,3.3-16.1,3.3c-7.6,0-14-1-19.2-3.3c-5.2-2.2-9.1-5.5-12.2-9.8C231.6,75.9,230.2,71,230,65.5"/>
	<path class="st0" d="M163,94l26.5-71.9c0.4-1,1.8-1,2.2,0L219,94h11l-29.9-79.2c-1.4-4.1-5.1-6.8-9.4-6.8l0,0c-4.1,0-7.7,2.7-9.4,6.8L152,94H163z"/>
</svg>
